<svg width="45" height="45" viewBox="0 0 45 45" fill="none" xmlns="http://www.w3.org/2000/svg">
<g clip-path="url(#clip0_9_19)">
<path d="M38.4189 6.5812C37.3689 5.5312 34.3876 4.76245 30.6189 4.76245C24.8439 4.76245 17.2126 6.56245 11.9064 11.8687C3.1126 20.6812 3.9376 35.7562 6.58135 38.4187C7.63135 39.4687 10.6126 40.2374 14.3814 40.2374C20.1564 40.2374 27.7876 38.4375 33.0939 33.1312C41.8876 24.3187 41.0626 9.2437 38.4189 6.5812ZM14.5501 14.55C19.5001 9.59995 26.4564 8.69995 29.6064 8.5687C25.7626 10.3312 21.2439 13.1625 17.2126 17.2125C13.1626 21.2625 10.3314 25.8 8.5501 29.6437C8.7376 24.9937 10.2001 18.8812 14.5501 14.55ZM30.4501 30.45C25.5001 35.4 18.5439 36.3 15.3939 36.4312C19.2376 34.6687 23.7564 31.8375 27.7876 27.7875C31.8376 23.7375 34.6689 19.2 36.4501 15.3562C36.2626 20.0062 34.8001 26.1187 30.4501 30.45Z" fill="#A4A4A4"/>
</g>
<defs>
<clipPath id="clip0_9_19">
<rect width="45" height="45" fill="white"/>
</clipPath>
</defs>
</svg>
