<svg width="45" height="45" viewBox="0 0 45 45" fill="none" xmlns="http://www.w3.org/2000/svg">
<g clip-path="url(#clip0_9_50)">
<path d="M28.2187 24.0187L12.3 8.09995C11.5687 7.3687 10.3875 7.3687 9.6562 8.09995L4.34995 13.4062C3.6187 14.1375 3.6187 15.3187 4.34995 16.05L20.2687 31.9687C21 32.6999 22.1812 32.6999 22.9125 31.9687L28.2187 26.6625C28.95 25.9312 28.95 24.75 28.2187 24.0187Z" fill="#A4A4A4"/>
<path d="M29.5413 30.6412L26.8896 33.2928L34.8445 41.2477L37.4961 38.5961L29.5413 30.6412Z" fill="#A4A4A4"/>
<path d="M34.6875 16.875C38.3119 16.875 41.25 13.9369 41.25 10.3125C41.25 6.68813 38.3119 3.75 34.6875 3.75C31.0631 3.75 28.125 6.68813 28.125 10.3125C28.125 13.9369 31.0631 16.875 34.6875 16.875Z" fill="#A4A4A4"/>
</g>
<defs>
<clipPath id="clip0_9_50">
<rect width="45" height="45" fill="white"/>
</clipPath>
</defs>
</svg>
