<svg width="225" height="38" viewBox="0 0 225 38" fill="none" xmlns="http://www.w3.org/2000/svg">
<path d="M0 37L9.38007 23.4405H22.0775L26.8819 10H44.3838L35.0037 37L44.3838 23.4405H62L52.5055 37H35.0037H0Z" fill="white"/>
<path d="M71.52 37H64.44L68.96 16.48H65.08L66.44 10.32H81.24L79.88 16.48H76.04L71.52 37ZM95.57 37H88.21L87.85 28.12H86.77L84.81 37H77.73L83.61 10.32H91.97C96.21 10.32 99.33 13.64 99.33 17.88C99.33 22.04 96.69 25.8 94.53 26.8L95.57 37ZM88.13 21.96H89.17C90.85 21.96 92.01 20.4 92.01 18.6C92.01 17.08 91.17 16.48 90.21 16.48H89.33L88.13 21.96ZM116.081 37H109.401L109.681 33.28H104.601L103.241 37H96.2406L107.961 10.32H116.081V37ZM110.241 27.12L110.841 16.4L106.801 27.12H110.241ZM124.576 37H117.496L123.376 10.32H130.456L124.576 37ZM145.807 37H139.247L137.567 23.88L134.727 37H127.847L133.727 10.32H140.807L142.167 22.76L144.847 10.32H151.687L145.807 37ZM148.536 34.12L152.416 28.92C153.416 30.32 155.176 31.24 156.776 31.24C157.936 31.24 158.776 30.4 158.776 29.24C158.776 28.28 157.776 27.44 156.536 26.44C154.656 24.88 152.256 22.96 152.256 19.4C152.256 14.2 156.296 9.88 161.736 9.88C164.416 9.88 167.336 10.88 169.096 12.8L165.456 18.04C164.536 16.84 163.136 16.12 161.656 16.12C160.376 16.12 159.776 17.04 159.776 17.96C159.776 19.04 160.816 19.92 162.056 20.96C163.896 22.48 166.176 24.4 166.176 27.88C166.176 32.96 162.496 37.48 156.776 37.48C153.256 37.48 150.096 36.12 148.536 34.12ZM175.739 37H168.659L173.179 16.48H169.299L170.659 10.32H185.459L184.099 16.48H180.259L175.739 37ZM183.27 28.08C183.27 21.52 186.71 9.88 195.63 9.88C201.31 9.88 204.03 14.04 204.03 19.32C204.03 25.92 200.55 37.48 191.67 37.48C185.95 37.48 183.27 33.4 183.27 28.08ZM196.83 19.2C196.83 17.44 196.39 16.12 195.23 16.12C192.27 16.12 190.43 24.88 190.43 28.24C190.43 30 190.83 31.24 191.99 31.24C194.95 31.24 196.83 22.52 196.83 19.2ZM209.888 37H202.808L208.688 10.32H216.968C221.528 10.32 224.448 13.64 224.448 17.8C224.448 23.16 220.928 28.12 213.648 28.12H211.848L209.888 37ZM213.208 21.96H214.248C216.048 21.96 217.128 20.24 217.128 18.56C217.128 17.28 216.408 16.48 215.328 16.48H214.408L213.208 21.96Z" fill="white"/>
</svg>
