<svg width="45" height="45" viewBox="0 0 45 45" fill="none" xmlns="http://www.w3.org/2000/svg">
<g clip-path="url(#clip0_9_116)">
<path d="M11.25 7.5188C6.7125 10.95 3.75 16.3688 3.75 22.5C3.75 25.2375 4.35 27.8438 5.41875 30.2063L11.25 26.8313V7.5188Z" fill="#A4A4A4"/>
<path d="M20.625 21.4125V3.84375C18.6375 4.05 16.7437 4.55625 15 5.325V24.675L20.625 21.4125Z" fill="#A4A4A4"/>
<path d="M22.5 24.6562L7.2937 33.4312C8.43745 35.0062 9.8062 36.4125 11.3812 37.5563L28.125 27.9188L22.5 24.6562Z" fill="#A4A4A4"/>
<path d="M24.375 14.925V21.4125L39.5813 30.1875C40.3688 28.4438 40.8938 26.5688 41.1188 24.6L24.375 14.925Z" fill="#A4A4A4"/>
<path d="M15.1313 39.75C17.4001 40.7062 19.8751 41.2499 22.5001 41.2499C28.7626 41.2499 34.2938 38.1562 37.7063 33.4499L31.8751 30.075L15.1313 39.75Z" fill="#A4A4A4"/>
<path d="M41.1 20.2688C40.0688 11.5875 33.1125 4.70625 24.375 3.84375V10.5938L41.1 20.2688Z" fill="#A4A4A4"/>
</g>
<defs>
<clipPath id="clip0_9_116">
<rect width="45" height="45" fill="white"/>
</clipPath>
</defs>
</svg>
