<svg width="24" height="25" viewBox="0 0 24 25" fill="none" xmlns="http://www.w3.org/2000/svg">
<path fill-rule="evenodd" clip-rule="evenodd" d="M11.8889 13.1188H11.9209C14.8489 13.1188 17.2299 10.7378 17.2299 7.80976C17.2299 4.88176 14.8489 2.49976 11.9209 2.49976C8.99189 2.49976 6.60989 4.88176 6.60989 7.80676C6.59989 10.7268 8.9669 13.1098 11.8889 13.1188ZM8.03789 7.80976C8.03789 5.66876 9.77989 3.92776 11.9209 3.92776C14.0609 3.92776 15.8019 5.66876 15.8019 7.80976C15.8019 9.94976 14.0609 11.6918 11.9209 11.6918H11.8919C9.75989 11.6838 8.03089 9.94376 8.03789 7.80976Z" fill="#212121"/>
<path fill-rule="evenodd" clip-rule="evenodd" d="M3.99988 18.6731C3.99988 22.3701 9.96188 22.3701 11.9209 22.3701C15.3199 22.3701 19.8399 21.9891 19.8399 18.6931C19.8399 14.9961 13.8799 14.9961 11.9209 14.9961C8.52088 14.9961 3.99988 15.3771 3.99988 18.6731ZM5.49988 18.6731C5.49988 17.2281 7.65988 16.4961 11.9209 16.4961C16.1809 16.4961 18.3399 17.2351 18.3399 18.6931C18.3399 20.1381 16.1809 20.8701 11.9209 20.8701C7.65988 20.8701 5.49988 20.1311 5.49988 18.6731Z" fill="#212121"/>
</svg>
