<svg width="45" height="45" viewBox="0 0 45 45" fill="none" xmlns="http://www.w3.org/2000/svg">
<g clip-path="url(#clip0_9_108)">
<path d="M22.5 3.75C12.15 3.75 3.75 12.15 3.75 22.5C3.75 32.85 12.15 41.25 22.5 41.25C32.85 41.25 41.25 32.85 41.25 22.5C41.25 12.15 32.85 3.75 22.5 3.75ZM24.375 9.9375L26.9062 8.15625C30.3188 9.20625 33.225 11.4563 35.1187 14.4187L34.3875 16.9312L31.8562 17.7937L24.375 12.5625V9.9375ZM18.0937 8.15625L20.625 9.9375V12.5625L13.1438 17.7937L10.6125 16.9312L9.88125 14.4187C11.775 11.475 14.6812 9.225 18.0937 8.15625ZM13.275 32.0813L11.1375 32.2687C8.86875 29.6437 7.5 26.2313 7.5 22.5C7.5 22.275 7.51875 22.0687 7.5375 21.8438L9.4125 20.475L12 21.375L14.7375 29.5125L13.275 32.0813ZM27.1875 36.7313C25.7062 37.2188 24.1313 37.5 22.5 37.5C20.8687 37.5 19.2937 37.2188 17.8125 36.7313L16.5188 33.9375L17.7188 31.875H27.3L28.5 33.9563L27.1875 36.7313ZM26.7563 28.125H18.2437L15.7125 20.5875L22.5 15.825L29.3062 20.5875L26.7563 28.125ZM33.8625 32.2687L31.725 32.0813L30.2437 29.5125L32.9813 21.375L35.5875 20.4938L37.4625 21.8625C37.4813 22.0688 37.5 22.275 37.5 22.5C37.5 26.2313 36.1312 29.6437 33.8625 32.2687Z" fill="#A4A4A4"/>
</g>
<defs>
<clipPath id="clip0_9_108">
<rect width="45" height="45" fill="white"/>
</clipPath>
</defs>
</svg>
