<svg width="19" height="16" viewBox="0 0 19 16" fill="none" xmlns="http://www.w3.org/2000/svg">
<path d="M7.75 7.5C9.683 7.5 11.25 5.933 11.25 4C11.25 2.067 9.683 0.5 7.75 0.5C5.817 0.5 4.25 2.067 4.25 4C4.25 5.933 5.817 7.5 7.75 7.5Z" fill="white"/>
<path d="M8.33625 8.3925C8.14375 8.38375 7.95125 8.375 7.75 8.375C5.6325 8.375 3.655 8.96125 1.96625 9.9675C1.19625 10.4225 0.75 11.28 0.75 12.1813V14.5H8.8525C8.16125 13.5113 7.75 12.3038 7.75 11C7.75 10.0637 7.96875 9.18875 8.33625 8.3925Z" fill="white"/>
<path d="M17.1562 11C17.1562 10.8075 17.1299 10.6325 17.1037 10.4488L18.1012 9.565L17.2262 8.05125L15.9574 8.48C15.6774 8.24375 15.3624 8.06 15.0124 7.92875L14.7499 6.625H12.9999L12.7374 7.92875C12.3874 8.06 12.0724 8.24375 11.7924 8.48L10.5237 8.05125L9.64868 9.565L10.6462 10.4488C10.6199 10.6325 10.5937 10.8075 10.5937 11C10.5937 11.1925 10.6199 11.3675 10.6462 11.5512L9.64868 12.435L10.5237 13.9488L11.7924 13.52C12.0724 13.7562 12.3874 13.94 12.7374 14.0712L12.9999 15.375H14.7499L15.0124 14.0712C15.3624 13.94 15.6774 13.7562 15.9574 13.52L17.2262 13.9488L18.1012 12.435L17.1037 11.5512C17.1299 11.3675 17.1562 11.1925 17.1562 11ZM13.8749 12.75C12.9124 12.75 12.1249 11.9625 12.1249 11C12.1249 10.0375 12.9124 9.25 13.8749 9.25C14.8374 9.25 15.6249 10.0375 15.6249 11C15.6249 11.9625 14.8374 12.75 13.8749 12.75Z" fill="white"/>
</svg>
